<svg id="图层_1" data-name="图层 1" xmlns="http://www.w3.org/2000/svg" xmlns:xlink="http://www.w3.org/1999/xlink" viewBox="0 0 30 30"><defs><linearGradient id="未命名的渐变_102" x1="0.17" y1="14.87" x2="30" y2="14.87" gradientUnits="userSpaceOnUse"><stop offset="0.01" stop-color="#379e4e"/><stop offset="1" stop-color="#006837"/></linearGradient></defs><path d="M28.69,10.55H19.41V1.27A.81.81,0,0,0,18.6.46h-7a.81.81,0,0,0-.81.81v9.28H1.48a.81.81,0,0,0-.81.81v7a.81.81,0,0,0,.81.81h9.28v9.28a.81.81,0,0,0,.81.81h7a.81.81,0,0,0,.81-.81V19.2h9.28a.81.81,0,0,0,.81-.81v-7A.81.81,0,0,0,28.69,10.55Z" style="fill:#d4ffec;stroke-miterlimit:10;stroke:url(#未命名的渐变_102)"/></svg>