<svg id="图层_1" data-name="图层 1" xmlns="http://www.w3.org/2000/svg" xmlns:xlink="http://www.w3.org/1999/xlink" viewBox="0 0 30 30"><defs><linearGradient id="未命名的渐变_72" x1="8.52" y1="-4.43" x2="21.67" y2="18.35" gradientUnits="userSpaceOnUse"><stop offset="0.12" stop-color="#666"/><stop offset="0.56" stop-color="#333"/></linearGradient><linearGradient id="未命名的渐变_72-2" x1="8.52" y1="11.57" x2="21.67" y2="34.35" xlink:href="#未命名的渐变_72"/><linearGradient id="未命名的渐变_126" x1="2.67" y1="3.15" x2="5.33" y2="7.77" gradientUnits="userSpaceOnUse"><stop offset="0.12" stop-color="#0384c5"/><stop offset="0.9" stop-color="#0063b1"/></linearGradient><linearGradient id="未命名的渐变_126-2" x1="7.67" y1="7.15" x2="10.33" y2="11.77" xlink:href="#未命名的渐变_126"/><linearGradient id="未命名的渐变_126-3" x1="12.67" y1="2.15" x2="15.33" y2="6.77" xlink:href="#未命名的渐变_126"/><linearGradient id="未命名的渐变_126-4" x1="5.67" y1="23.15" x2="8.33" y2="27.77" xlink:href="#未命名的渐变_126"/><linearGradient id="未命名的渐变_126-5" x1="13.67" y1="18.15" x2="16.33" y2="22.77" xlink:href="#未命名的渐变_126"/><linearGradient id="未命名的渐变_126-6" x1="24.67" y1="7.15" x2="27.33" y2="11.77" xlink:href="#未命名的渐变_126"/><linearGradient id="未命名的渐变_126-7" x1="22.67" y1="21.15" x2="25.33" y2="25.77" xlink:href="#未命名的渐变_126"/><linearGradient id="未命名的渐变_126-8" x1="18.67" y1="2.15" x2="21.33" y2="6.77" xlink:href="#未命名的渐变_126"/></defs><rect x="0.19" y="-0.04" width="29.81" height="14" rx="1" style="fill:#fff"/><path d="M29,1V13H1.19V1H29m0-1H1.19a1,1,0,0,0-1,1V13a1,1,0,0,0,1,1H29a1,1,0,0,0,1-1V1a1,1,0,0,0-1-1Z" style="fill:url(#未命名的渐变_72)"/><rect x="0.19" y="15.96" width="29.81" height="14" rx="1" style="fill:#fff"/><path d="M29,17V29H1.19V17H29m0-1H1.19a1,1,0,0,0-1,1V29a1,1,0,0,0,1,1H29a1,1,0,0,0,1-1V17a1,1,0,0,0-1-1Z" style="fill:url(#未命名的渐变_72-2)"/><rect x="3" y="2.96" width="2" height="5" style="fill:url(#未命名的渐变_126)"/><rect x="8" y="6.96" width="2" height="5" style="fill:url(#未命名的渐变_126-2)"/><rect x="13" y="1.96" width="2" height="5" style="fill:url(#未命名的渐变_126-3)"/><rect x="6" y="22.96" width="2" height="5" style="fill:url(#未命名的渐变_126-4)"/><rect x="14" y="17.96" width="2" height="5" style="fill:url(#未命名的渐变_126-5)"/><rect x="25" y="6.96" width="2" height="5" style="fill:url(#未命名的渐变_126-6)"/><rect x="23" y="20.96" width="2" height="5" style="fill:url(#未命名的渐变_126-7)"/><rect x="19" y="1.96" width="2" height="5" style="fill:url(#未命名的渐变_126-8)"/></svg>