<svg id="图层_1" data-name="图层 1" xmlns="http://www.w3.org/2000/svg" xmlns:xlink="http://www.w3.org/1999/xlink" viewBox="0 0 20 20"><defs><linearGradient id="未命名的渐变_33" x1="4.24" y1="1.79" x2="12.44" y2="16" gradientUnits="userSpaceOnUse"><stop offset="0.06" stop-color="gray"/><stop offset="0.98" stop-color="#4d4d4d"/></linearGradient><linearGradient id="未命名的渐变_126" x1="7.31" y1="3.57" x2="16.01" y2="18.64" gradientUnits="userSpaceOnUse"><stop offset="0.12" stop-color="#0384c5"/><stop offset="0.9" stop-color="#0063b1"/></linearGradient><radialGradient id="未命名的渐变_2" cx="10.19" cy="8.89" r="6.05" gradientUnits="userSpaceOnUse"><stop offset="0.12" stop-color="#fff"/><stop offset="1" stop-color="#b3b3b3"/></radialGradient><linearGradient id="未命名的渐变_126-2" x1="10.75" y1="7.31" x2="12.57" y2="10.47" xlink:href="#未命名的渐变_126"/><radialGradient id="未命名的渐变_2-2" cx="10.19" cy="13.32" r="6.05" xlink:href="#未命名的渐变_2"/><linearGradient id="未命名的渐变_126-3" x1="10.75" y1="11.74" x2="12.57" y2="14.91" xlink:href="#未命名的渐变_126"/></defs><rect width="20" height="20" style="fill:none"/><rect x="2.38" y="2.44" width="11.91" height="12.91" rx="1" style="fill:#fff"/><path d="M13.29,3.44V14.35H3.38V3.44h9.91m0-1H3.38a1,1,0,0,0-1,1V14.35a1,1,0,0,0,1,1h9.91a1,1,0,0,0,1-1V3.44a1,1,0,0,0-1-1Z" style="fill:url(#未命名的渐变_33)"/><rect x="5.71" y="4.65" width="11.91" height="12.91" rx="1" style="fill:#fff;stroke-miterlimit:10;stroke:url(#未命名的渐变_126)"/><line x1="9.01" y1="8.89" x2="14.31" y2="8.89" style="stroke-linecap:round;stroke-miterlimit:10;fill:url(#未命名的渐变_2);stroke:url(#未命名的渐变_126-2)"/><line x1="9.01" y1="13.32" x2="14.31" y2="13.32" style="stroke-linecap:round;stroke-miterlimit:10;fill:url(#未命名的渐变_2-2);stroke:url(#未命名的渐变_126-3)"/></svg>