<svg id="图层_1" data-name="图层 1" xmlns="http://www.w3.org/2000/svg" xmlns:xlink="http://www.w3.org/1999/xlink" viewBox="0 0 20 20"><defs><linearGradient id="未命名的渐变_178" x1="2.6" y1="4.72" x2="17.4" y2="4.72" gradientUnits="userSpaceOnUse"><stop offset="0.01" stop-color="#ff5559"/><stop offset="1" stop-color="#aa001c"/></linearGradient><linearGradient id="未命名的渐变_178-2" x1="7.18" y1="2.5" x2="12.82" y2="2.5" xlink:href="#未命名的渐变_178"/><linearGradient id="未命名的渐变_178-3" x1="3.95" y1="3.65" x2="16.25" y2="15.95" xlink:href="#未命名的渐变_178"/><linearGradient id="未命名的渐变_178-4" x1="6.65" y1="9.04" x2="10.22" y2="12.62" xlink:href="#未命名的渐变_178"/><linearGradient id="未命名的渐变_178-5" x1="9.98" y1="9.04" x2="13.56" y2="12.62" xlink:href="#未命名的渐变_178"/></defs><rect width="20" height="20" style="fill:none"/><line x1="3.1" y1="4.72" x2="16.9" y2="4.72" style="fill:#fcc5cd;stroke-linecap:round;stroke-miterlimit:10;stroke:url(#未命名的渐变_178)"/><line x1="7.68" y1="2.5" x2="12.32" y2="2.5" style="fill:#fcc5cd;stroke-linecap:round;stroke-miterlimit:10;stroke:url(#未命名的渐变_178-2)"/><path d="M14,17.5H6.18a1.63,1.63,0,0,1-1.63-1.64L3.43,4.17H16.77L15.66,15.86A1.63,1.63,0,0,1,14,17.5Z" style="fill:#fcc5cd"/><path d="M15.67,5.17l-1,10.6v.09a.64.64,0,0,1-.64.64H6.18a.63.63,0,0,1-.63-.64v-.09l-1-10.6H15.67m1.1-1H3.43L4.55,15.86A1.63,1.63,0,0,0,6.18,17.5H14a1.63,1.63,0,0,0,1.64-1.64L16.77,4.17Z" style="fill:url(#未命名的渐变_178-3)"/><line x1="8.43" y1="7.96" x2="8.43" y2="13.7" style="fill:#fcc5cd;stroke-linecap:round;stroke-miterlimit:10;stroke:url(#未命名的渐变_178-4)"/><line x1="11.77" y1="7.96" x2="11.77" y2="13.7" style="fill:#fcc5cd;stroke-linecap:round;stroke-miterlimit:10;stroke:url(#未命名的渐变_178-5)"/></svg>