<svg id="图层_1" data-name="图层 1" xmlns="http://www.w3.org/2000/svg" xmlns:xlink="http://www.w3.org/1999/xlink" viewBox="0 0 30 30"><defs><radialGradient id="未命名的渐变_154" cx="10.43" cy="7" r="55.73" gradientUnits="userSpaceOnUse"><stop offset="0" stop-color="#fbebca"/><stop offset="0.57" stop-color="#ffd555"/></radialGradient><linearGradient id="未命名的渐变_64" x1="0.17" y1="14.87" x2="30" y2="14.87" gradientUnits="userSpaceOnUse"><stop offset="0.12" stop-color="#d49a00"/><stop offset="0.81" stop-color="#916306"/></linearGradient></defs><path d="M28.69,10.55H19.41V1.27A.81.81,0,0,0,18.6.46h-7a.81.81,0,0,0-.81.81v9.28H1.48a.81.81,0,0,0-.81.81v7a.81.81,0,0,0,.81.81h9.28v9.28a.81.81,0,0,0,.81.81h7a.81.81,0,0,0,.81-.81V19.2h9.28a.81.81,0,0,0,.81-.81v-7A.81.81,0,0,0,28.69,10.55Z" style="stroke-miterlimit:10;fill:url(#未命名的渐变_154);stroke:url(#未命名的渐变_64)"/></svg>