<svg id="图层_1" data-name="图层 1" xmlns="http://www.w3.org/2000/svg" xmlns:xlink="http://www.w3.org/1999/xlink" viewBox="0 0 30 30"><defs><linearGradient id="未命名的渐变_72" x1="4.38" y1="4.44" x2="25.56" y2="25.62" gradientUnits="userSpaceOnUse"><stop offset="0.12" stop-color="#666"/><stop offset="0.56" stop-color="#333"/></linearGradient><linearGradient id="未命名的渐变_126" x1="9.95" y1="10.01" x2="19.99" y2="20.05" gradientUnits="userSpaceOnUse"><stop offset="0.12" stop-color="#0384c5"/><stop offset="0.9" stop-color="#0063b1"/></linearGradient></defs><path d="M27.3,15a4.12,4.12,0,0,1,2.64-3.83,15.54,15.54,0,0,0-1.68-4,4.09,4.09,0,0,1-5.41-5.41A15.54,15.54,0,0,0,18.8.06,4.12,4.12,0,0,1,15,2.7,4.12,4.12,0,0,1,11.14.06,15.54,15.54,0,0,0,7.09,1.74,4.09,4.09,0,0,1,1.68,7.15,15.54,15.54,0,0,0,0,11.2,4.12,4.12,0,0,1,2.64,15,4.12,4.12,0,0,1,0,18.86a15.54,15.54,0,0,0,1.68,4.05,4.09,4.09,0,0,1,5.41,5.41A15.54,15.54,0,0,0,11.14,30a4.1,4.1,0,0,1,7.66,0,15.54,15.54,0,0,0,4.05-1.68,4.09,4.09,0,0,1,5.41-5.41,15.54,15.54,0,0,0,1.68-4.05A4.12,4.12,0,0,1,27.3,15Z" style="fill:#ddd"/><path d="M19.32,1.25a13.83,13.83,0,0,1,2.32,1A5.11,5.11,0,0,0,23,7a5,5,0,0,0,3.6,1.5,4.89,4.89,0,0,0,1.21-.15,13.83,13.83,0,0,1,1,2.32,5.09,5.09,0,0,0,0,8.7,13.83,13.83,0,0,1-1,2.32,4.89,4.89,0,0,0-1.21-.15,5.08,5.08,0,0,0-4.94,6.3,14.18,14.18,0,0,1-2.32,1,5.09,5.09,0,0,0-8.7,0,13.83,13.83,0,0,1-2.32-1A5.11,5.11,0,0,0,7,23.05a5,5,0,0,0-3.6-1.5,4.89,4.89,0,0,0-1.21.15,13.83,13.83,0,0,1-1-2.32A5.06,5.06,0,0,0,3.64,15a5.06,5.06,0,0,0-2.45-4.35,13.83,13.83,0,0,1,1-2.32,4.89,4.89,0,0,0,1.21.15A5.08,5.08,0,0,0,8.3,2.21a14.18,14.18,0,0,1,2.32-1A5.06,5.06,0,0,0,15,3.7a5.06,5.06,0,0,0,4.35-2.45M18.8.06A4.12,4.12,0,0,1,15,2.7,4.12,4.12,0,0,1,11.14.06,15.54,15.54,0,0,0,7.09,1.74,4.09,4.09,0,0,1,1.68,7.15,15.54,15.54,0,0,0,0,11.2,4.12,4.12,0,0,1,2.64,15,4.12,4.12,0,0,1,0,18.86a15.54,15.54,0,0,0,1.68,4.05,4.09,4.09,0,0,1,5.41,5.41A15.54,15.54,0,0,0,11.14,30a4.1,4.1,0,0,1,7.66,0,15.54,15.54,0,0,0,4.05-1.68,4.09,4.09,0,0,1,5.41-5.41,15.54,15.54,0,0,0,1.68-4.05,4.1,4.1,0,0,1,0-7.66,15.54,15.54,0,0,0-1.68-4,4.09,4.09,0,0,1-5.41-5.41A15.54,15.54,0,0,0,18.8.06Z" style="fill:url(#未命名的渐变_72)"/><circle cx="14.97" cy="15.03" r="7.1" style="fill:#e6faff"/><path d="M15,8.93A6.1,6.1,0,1,1,8.87,15,6.1,6.1,0,0,1,15,8.93m0-1a7.1,7.1,0,1,0,7.1,7.1A7.1,7.1,0,0,0,15,7.93Z" style="fill:url(#未命名的渐变_126)"/></svg>