<svg id="图层_1" data-name="图层 1" xmlns="http://www.w3.org/2000/svg" xmlns:xlink="http://www.w3.org/1999/xlink" viewBox="0 0 30 30"><defs><linearGradient id="未命名的渐变_72" x1="5.09" y1="-2.45" x2="25.09" y2="32.18" gradientUnits="userSpaceOnUse"><stop offset="0.12" stop-color="#666"/><stop offset="0.56" stop-color="#333"/></linearGradient><linearGradient id="未命名的渐变_64" x1="0.53" y1="18.99" x2="29.47" y2="18.99" gradientUnits="userSpaceOnUse"><stop offset="0.12" stop-color="#d49a00"/><stop offset="0.81" stop-color="#916306"/></linearGradient><linearGradient id="未命名的渐变_126" x1="0.63" y1="14.71" x2="29.42" y2="14.71" gradientUnits="userSpaceOnUse"><stop offset="0.12" stop-color="#0384c5"/><stop offset="0.9" stop-color="#0063b1"/></linearGradient></defs><rect x="0.19" y="-0.04" width="29.81" height="29.81" rx="1" style="fill:#fff"/><path d="M29,1V28.77H1.19V1H29m0-1H1.19a1,1,0,0,0-1,1V28.77a1,1,0,0,0,1,1H29a1,1,0,0,0,1-1V1a1,1,0,0,0-1-1Z" style="fill:url(#未命名的渐变_72)"/><path d="M29,1V28.77H1.19V1H29m0-1H1.19a1,1,0,0,0-1,1V28.77a1,1,0,0,0,1,1H29a1,1,0,0,0,1-1V1a1,1,0,0,0-1-1Z" style="fill:url(#未命名的渐变_72)"/><path d="M1,21.34s2.3-6.63,7.7-6.63,6.8,8.56,12.72,8.56A7.77,7.77,0,0,0,29,18.61" style="fill:none;stroke-miterlimit:10;stroke:url(#未命名的渐变_64)"/><polyline points="1 14.2 6.93 7.54 12.45 21.88 18.61 15.01 23.48 19.68 29 10.85" style="fill:none;stroke-miterlimit:10;stroke:url(#未命名的渐变_126)"/><path d="M29,1V28.77H1.19V1H29m0-1H1.19a1,1,0,0,0-1,1V28.77a1,1,0,0,0,1,1H29a1,1,0,0,0,1-1V1a1,1,0,0,0-1-1Z" style="fill:url(#未命名的渐变_72)"/></svg>